<svg xmlns="http://www.w3.org/2000/svg" width="256" height="256"><path fill="#1976D2" fill-opacity=".016" fill-rule="evenodd" d="M0 128.004v128.004l128.25-.254 128.25-.254.254-127.75L257.008 0H0zm.485.496c0 70.4.119 99.053.265 63.672s.146-92.98 0-128S.485 58.1.485 128.5"/><path fill="#1976D2" fill-opacity=".183" fill-rule="evenodd" d="M105.615 26.465c-.888 1.355-1.615 3.354-1.615 4.441s-.45 2.254-1 2.594-1 1.478-1 2.529-.9 3.513-2 5.471-2 4.421-2 5.471c0 1.051-.45 2.189-1 2.529s-1 1.498-1 2.573-.397 2.736-.883 3.691S93.678 58.85 93 60.5s-1.631 3.781-2.117 4.736S90 67.569 90 68.299c0 .729-.9 3.188-2 5.465s-2 4.81-2 5.629-.45 1.767-1 2.107-1 1.422-1 2.405-.717 3.224-1.592 4.98C79.403 94.907 79.714 95 102.854 95h20.916l1.615-2.465c.888-1.355 1.615-3.38 1.615-4.5 0-2.738 1.71-2.591 2.495.215.347 1.237 1.004 3.15 1.461 4.25 2.589 6.242 5.044 12.881 5.044 13.644 0 .483.847 2.785 1.882 5.117s2.43 5.814 3.101 7.739 1.58 4.4 2.02 5.5c.441 1.1 1.701 4.475 2.8 7.5s3.36 9.1 5.025 13.5c1.664 4.4 3.601 9.8 4.303 12 .703 2.2 1.635 4.428 2.073 4.95s.796 1.54.796 2.261.864 3.218 1.919 5.55 2.231 5.364 2.612 6.739c.38 1.375 1.264 3.85 1.963 5.5s1.82 4.575 2.49 6.5 1.579 4.4 2.019 5.5 1.746 4.588 2.9 7.75l4.194 11.5c1.154 3.162 2.564 6.875 3.134 8.25a348 348 0 0 1 2.019 5c2.289 5.828.832 5.48 24.108 5.77l21.642.269v-2.568c0-1.412-.9-4.43-2-6.707s-2-4.736-2-5.465-.397-2.108-.883-3.063c-1.508-2.963-2.962-6.628-3.665-9.236-.371-1.375-1.247-3.85-1.946-5.5s-1.82-4.575-2.49-6.5c-1.411-4.055-2.339-6.51-3.781-10-.568-1.375-1.574-4.075-2.235-6s-1.558-4.4-1.994-5.5c-3.778-9.545-5.006-12.891-5.006-13.644 0-.483-.847-2.785-1.882-5.117s-2.43-5.814-3.101-7.739-1.563-4.4-1.984-5.5c-.724-1.892-3.244-8.733-6.077-16.5-.702-1.925-1.654-3.928-2.116-4.45s-.84-1.895-.84-3.05-.358-2.527-.796-3.05-1.367-2.75-2.066-4.95-1.69-5.013-2.204-6.25C178.087 97.8 177.182 95.443 176 92c-.661-1.925-1.606-4.513-2.101-5.75l-1.798-4.5c-.495-1.237-1.44-3.825-2.101-5.75s-1.565-4.4-2.008-5.5c-1.598-3.965-4.21-11.088-5.684-15.5-.827-2.475-1.91-4.928-2.406-5.45S159 47.784 159 46.786s-.45-2.707-1-3.8l-2-3.972c-.55-1.093-1.004-2.555-1.01-3.25-.005-.695-1.109-3.626-2.454-6.514L150.092 24H107.23zM54.081 164.25A997 997 0 0 0 47.805 181c-2.372 6.523-3.72 9.874-4.922 12.236-.486.955-.883 2.553-.883 3.55 0 .998-.406 2.241-.902 2.764s-1.579 2.975-2.406 5.45c-1.61 4.819-4.346 12.235-5.719 15.5-2.219 5.277-3.226 9.397-2.66 10.874.549 1.43 3.159 1.626 21.65 1.626H72.99l1.936-4.25c1.065-2.338 2.6-6.275 3.411-8.75 2.444-7.46 6.044-16.824 7.78-20.236.486-.955.883-2.553.883-3.55 0-.998.406-2.242.902-2.764s1.579-2.975 2.406-5.45c1.894-5.67 4.542-12.771 7.567-20.297 2.373-5.901 3.098-5.703-20.9-5.703-21.916 0-22.029.011-22.894 2.25"/><path fill="#1976D2" fill-opacity=".405" fill-rule="evenodd" d="M106.176 27.75c-.586 1.512-1.798 5-2.693 7.75s-2.24 6.35-2.988 8-2.098 5.25-3 8-2.245 6.35-2.985 8-2.335 5.925-3.544 9.5-2.597 6.927-3.082 7.45c-.486.522-.884 1.91-.884 3.083s-.308 2.442-.685 2.819c-.997.997-3.282 7.852-3.3 9.898-.014 1.61 1.614 1.75 20.324 1.75h20.34l1.16-2.547c.639-1.401 1.161-3.351 1.161-4.333s.269-2.056.598-2.384c.848-.849 3.402.278 3.402 1.501 0 .562 3.629 10.751 8.065 22.643 4.436 11.891 8.892 23.87 9.904 26.62 1.011 2.75 2.959 7.925 4.328 11.5 2.868 7.491 6.342 16.827 17.674 47.5 10.442 28.263 12.978 34.716 14.243 36.25 1.556 1.887 41.786 1.794 41.786-.096 0-.74-1.39-5.128-3.089-9.75s-3.446-9.529-3.881-10.904-1.939-5.425-3.342-9c-2.096-5.343-11.65-31.011-20.657-55.5-1.011-2.75-2.959-7.925-4.328-11.5s-4.139-11-6.157-16.5c-5.903-16.092-7.688-20.875-8.584-23-.696-1.651-9.977-26.656-19.115-51.5a488 488 0 0 0-4.547-11.75L149.775 25h-42.532zm-50.945 136.5c-.557.688-1.708 3.275-2.556 5.75s-2.968 8.325-4.708 13a3180 3180 0 0 0-4.994 13.5c-1.005 2.75-4.136 11.075-6.957 18.5s-5.157 13.725-5.191 14c-.355 2.866.565 3 20.652 3 23.203 0 21.621.573 24.866-9 1.634-4.82 4.692-13.098 12.194-33C96.556 168.725 98 164.735 98 163.853c0-1.449-41.585-1.063-42.769.397"/><path fill="#1976D2" fill-opacity=".68" fill-rule="evenodd" d="M148 28.953c0 1.782-.707 3.955-3.107 9.547-.813 1.894-3.02 7.97-9.987 27.5-1.667 4.675-3.679 9.918-4.469 11.651-1.622 3.556-1.803 5.512-.641 6.899.438.523 1.367 2.75 2.066 4.95s1.672 4.9 2.163 6 2.297 5.825 4.012 10.5l5.138 14c1.111 3.025 2.382 6.4 2.825 7.5s1.749 4.588 2.903 7.75l4.194 11.5c1.154 3.162 2.459 6.65 2.9 7.75s1.349 3.575 2.019 5.5 1.888 5.017 2.706 6.872 1.85 4.554 2.292 6c.443 1.445 1.916 5.553 3.274 9.128s4.356 11.675 6.661 18c6.164 16.908 10.102 27.303 10.986 29 .649 1.246 4.28 1.546 21.423 1.77 11.353.149 20.642-.099 20.642-.55s-.406-1.248-.902-1.77c-.496-.523-1.579-2.975-2.406-5.45-1.763-5.278-4.387-12.271-6.19-16.5-.704-1.65-1.583-4.125-1.954-5.5-.37-1.375-1.069-3.4-1.552-4.5s-2.75-7.175-5.036-13.5-4.738-12.85-5.447-14.5c-.71-1.65-1.602-4.125-1.982-5.5-.381-1.375-1.556-4.408-2.612-6.739-1.055-2.332-1.919-4.634-1.919-5.117 0-.753-1.228-4.099-5.006-13.644-.436-1.1-1.333-3.575-1.994-5.5s-1.588-4.4-2.06-5.5-2.262-5.825-3.977-10.5l-5.138-14c-1.111-3.025-2.382-6.4-2.825-7.5s-1.749-4.588-2.903-7.75c-4.879-13.376-6.394-17.413-7.6-20.25-.701-1.65-1.586-4.125-1.966-5.5-.381-1.375-1.556-4.408-2.612-6.739-1.055-2.332-1.919-4.634-1.919-5.117 0-.753-1.228-4.099-5.006-13.644-.436-1.1-1.342-3.462-2.014-5.25-1.357-3.608-2.98-4.315-2.98-1.297M54.513 167.622c-.832 1.992-1.513 3.957-1.513 4.367 0 .636-1.51 4.708-5.01 13.511-.844 2.122-2.898 7.691-7.934 21.5-1.704 4.675-3.539 9.281-4.077 10.236-.539.955-.979 2.215-.979 2.799s-.9 2.924-2 5.201-2 4.514-2 4.972 9.304.711 20.676.562l20.676-.27 1.726-4.5c.95-2.475 2.714-7.2 3.922-10.5 1.207-3.3 2.579-6.9 3.047-8 .469-1.1 3.139-8.3 5.934-16 2.794-7.7 5.475-14.9 5.957-16 1.29-2.946 4.062-10.465 4.062-11.02 0-.264-9.219-.48-20.487-.48H56.027z"/></svg>